<?xml version="1.0" standalone="no"?><svg xmlns="http://www.w3.org/2000/svg" viewBox="0 0 1440 320"><path fill="#00fdec" fill-opacity="1" d="M0,320L34.3,298.7C68.6,277,137,235,206,224C274.3,213,343,235,411,218.7C480,203,549,149,617,138.7C685.7,128,754,160,823,186.7C891.4,213,960,235,1029,229.3C1097.1,224,1166,192,1234,165.3C1302.9,139,1371,117,1406,106.7L1440,96L1440,0L1405.7,0C1371.4,0,1303,0,1234,0C1165.7,0,1097,0,1029,0C960,0,891,0,823,0C754.3,0,686,0,617,0C548.6,0,480,0,411,0C342.9,0,274,0,206,0C137.1,0,69,0,34,0L0,0Z"></path></svg>